<svg width="24" height="24" viewBox="0 0 24 24" fill="none" xmlns="http://www.w3.org/2000/svg">
<path d="M6.48389 0.25H17.5229C18.6851 0.25 19.5415 0.250597 20.2173 0.307617C20.89 0.364381 21.3614 0.475397 21.7583 0.685547C22.4226 1.0373 22.9661 1.58078 23.3179 2.24512C23.528 2.64203 23.639 3.11347 23.6958 3.78613C23.7528 4.46187 23.7534 5.31836 23.7534 6.48047V17.5195C23.7534 18.6816 23.7528 19.5381 23.6958 20.2139C23.639 20.8865 23.528 21.358 23.3179 21.7549C22.9661 22.4192 22.4226 22.9627 21.7583 23.3145C21.3614 23.5246 20.89 23.6356 20.2173 23.6924C19.5415 23.7494 18.6851 23.75 17.5229 23.75H6.48389C5.32178 23.75 4.46529 23.7494 3.78955 23.6924C3.11688 23.6356 2.64545 23.5246 2.24854 23.3145C1.58419 22.9627 1.04072 22.4192 0.688965 21.7549C0.478815 21.358 0.367799 20.8865 0.311035 20.2139C0.254015 19.5381 0.253418 18.6816 0.253418 17.5195V6.48047C0.253418 5.31836 0.254015 4.46187 0.311035 3.78613C0.367799 3.11347 0.478815 2.64203 0.688965 2.24512C1.04072 1.58078 1.58419 1.0373 2.24854 0.685547C2.64545 0.475398 3.11688 0.364381 3.78955 0.307617C4.1273 0.279117 4.51006 0.264018 4.95361 0.256836L6.48389 0.25Z" fill="white"/>
<path d="M6.48389 0.25H17.5229C18.6851 0.25 19.5415 0.250597 20.2173 0.307617C20.89 0.364381 21.3614 0.475397 21.7583 0.685547C22.4226 1.0373 22.9661 1.58078 23.3179 2.24512C23.528 2.64203 23.639 3.11347 23.6958 3.78613C23.7528 4.46187 23.7534 5.31836 23.7534 6.48047V17.5195C23.7534 18.6816 23.7528 19.5381 23.6958 20.2139C23.639 20.8865 23.528 21.358 23.3179 21.7549C22.9661 22.4192 22.4226 22.9627 21.7583 23.3145C21.3614 23.5246 20.89 23.6356 20.2173 23.6924C19.5415 23.7494 18.6851 23.75 17.5229 23.75H6.48389C5.32178 23.75 4.46529 23.7494 3.78955 23.6924C3.11688 23.6356 2.64545 23.5246 2.24854 23.3145C1.58419 22.9627 1.04072 22.4192 0.688965 21.7549C0.478815 21.358 0.367799 20.8865 0.311035 20.2139C0.254015 19.5381 0.253418 18.6816 0.253418 17.5195V6.48047C0.253418 5.31836 0.254015 4.46187 0.311035 3.78613C0.367799 3.11347 0.478815 2.64203 0.688965 2.24512C1.04072 1.58078 1.58419 1.0373 2.24854 0.685547C2.64545 0.475398 3.11688 0.364381 3.78955 0.307617C4.1273 0.279117 4.51006 0.264018 4.95361 0.256836L6.48389 0.25Z" stroke="white" stroke-width="0.5"/>
<path d="M18.4194 12.157C18.4194 11.7149 18.3766 11.2585 18.3053 10.8306H12.1298V13.3551H15.6668C15.5242 14.168 15.0535 14.8811 14.3547 15.3375L16.4655 16.9777C17.7063 15.8224 18.4194 14.1395 18.4194 12.157Z" fill="#4285F4"/>
<path d="M12.131 18.5465C13.8995 18.5465 15.3828 17.9618 16.4667 16.9634L14.3559 15.3375C13.7711 15.7368 13.0152 15.965 12.131 15.965C10.4195 15.965 8.97902 14.8098 8.45131 13.2695L6.28345 14.9382C7.39591 17.1488 9.64935 18.5465 12.131 18.5465Z" fill="#34A353"/>
<path d="M8.45068 13.2552C8.17969 12.4423 8.17969 11.558 8.45068 10.7451L6.28281 9.06213C5.35576 10.9162 5.35576 13.0984 6.28281 14.9382L8.45068 13.2552Z" fill="#F6B704"/>
<path d="M12.131 8.04954C13.058 8.03527 13.9708 8.39183 14.6411 9.03363L16.5095 7.15101C15.3257 6.03855 13.7569 5.43954 12.131 5.4538C9.64935 5.4538 7.39591 6.8515 6.28345 9.06216L8.45131 10.7451C8.97902 9.19052 10.4195 8.04954 12.131 8.04954Z" fill="#E54335"/>
</svg>
